<svg width="187" height="208" viewBox="0 0 187 208" fill="none" xmlns="http://www.w3.org/2000/svg">
<path d="M172.64 163.23L105.12 202.21C97.78 206.45 88.73 206.45 81.39 202.21L13.86 163.23C6.52 158.99 2 151.16 2 142.68V64.71C2 56.23 6.52 48.4 13.86 44.16L81.39 5.18C88.73 0.94 97.78 0.94 105.12 5.18L172.64 44.16C179.98 48.4 184.5 56.23 184.5 64.71V142.68C184.5 151.16 179.98 158.99 172.64 163.23Z" stroke="black" stroke-width="4" stroke-miterlimit="10"/>
<path d="M173.54 69.68H121.98V93.51H173.54V69.68Z" fill="#B44323"/>
<path d="M172.54 69.68H121.98V92.28H172.54V69.68Z" fill="#CD4810"/>
<path d="M93.2499 95.51H41.6899V119.34H93.2499V95.51Z" fill="#B34322"/>
<path d="M92.1299 95.54H41.5699V118.14H92.1299V95.54Z" fill="#CD4810"/>
<path d="M65.66 69.68H14.1V93.51H65.66V69.68Z" fill="#A8402B"/>
<path d="M64.66 69.68H14.1V92.28H64.66V69.68Z" fill="#B9400B"/>
<path d="M119.6 69.68H68.04V93.51H119.6V69.68Z" fill="#BB4413"/>
<path d="M118.53 69.68H67.97V92.28H118.53V69.68Z" fill="#CF4810"/>
<path d="M146.65 95.51H95.09V119.34H146.65V95.51Z" fill="#A13D1E"/>
<path d="M146.65 43.81H95.09V67.64H146.65V43.81Z" fill="#CF4A17"/>
<path d="M145.65 43.81H95.09V66.41H145.65V43.81Z" fill="#D05720"/>
<path d="M145.65 95.54H95.09V118.14H145.65V95.54Z" fill="#BC400A"/>
<path d="M93.2499 43.81H41.6899V67.64H93.2499V43.81Z" fill="#BB4413"/>
<path d="M92.2499 43.81H41.6899V66.41H92.2499V43.81Z" fill="#CD4810"/>
<path d="M53.017 127.017H56.2699C57.4347 127.017 58.4669 127.263 59.3665 127.756C60.2708 128.248 60.9787 128.942 61.4901 129.837C62.0062 130.727 62.2642 131.773 62.2642 132.976C62.2642 134.141 62.0062 135.156 61.4901 136.023C60.9787 136.889 60.2708 137.564 59.3665 138.047C58.4669 138.525 57.4347 138.764 56.2699 138.764H53.017C51.8475 138.764 50.8106 138.527 49.9062 138.054C49.0019 137.576 48.2917 136.903 47.7756 136.037C47.2642 135.17 47.0085 134.148 47.0085 132.969C47.0085 131.766 47.2666 130.72 47.7827 129.83C48.3035 128.935 49.0161 128.243 49.9205 127.756C50.8248 127.263 51.857 127.017 53.017 127.017ZM53.017 129.588C52.392 129.588 51.8404 129.714 51.3622 129.964C50.8887 130.211 50.5194 130.585 50.2543 131.087C49.9891 131.589 49.8565 132.216 49.8565 132.969C49.8565 133.688 49.9915 134.287 50.2614 134.766C50.536 135.244 50.91 135.601 51.3835 135.838C51.857 136.075 52.4015 136.193 53.017 136.193H56.2912C56.9115 136.193 57.4536 136.072 57.9176 135.831C58.3864 135.589 58.7486 135.23 59.0043 134.751C59.2647 134.273 59.3949 133.681 59.3949 132.976C59.3949 132.223 59.2647 131.596 59.0043 131.094C58.7486 130.592 58.3864 130.215 57.9176 129.964C57.4536 129.714 56.9115 129.588 56.2912 129.588H53.017ZM56.0994 125.199V140.597H53.1804V125.199H56.0994ZM66.2166 140H62.9212L67.9425 125.455H71.9055L76.9197 140H73.6243L69.9808 128.778H69.8672L66.2166 140ZM66.0107 134.283H73.7947V136.683H66.0107V134.283ZM90.8207 130.547H87.7099C87.6531 130.144 87.5371 129.787 87.3619 129.474C87.1867 129.157 86.9618 128.887 86.6871 128.665C86.4125 128.442 86.0953 128.272 85.7354 128.153C85.3803 128.035 84.9944 127.976 84.5778 127.976C83.8249 127.976 83.1692 128.163 82.6104 128.537C82.0517 128.906 81.6185 129.446 81.3107 130.156C81.003 130.862 80.8491 131.719 80.8491 132.727C80.8491 133.764 81.003 134.635 81.3107 135.341C81.6232 136.046 82.0588 136.579 82.6175 136.939C83.1763 137.299 83.8226 137.479 84.5565 137.479C84.9684 137.479 85.3496 137.424 85.6999 137.315C86.055 137.206 86.3699 137.048 86.6445 136.839C86.9192 136.626 87.1464 136.368 87.3263 136.065C87.511 135.762 87.6388 135.417 87.7099 135.028L90.8207 135.043C90.7402 135.71 90.5389 136.354 90.217 136.974C89.8997 137.59 89.4712 138.142 88.9315 138.629C88.3964 139.112 87.7572 139.496 87.0138 139.78C86.2752 140.059 85.4395 140.199 84.5067 140.199C83.2094 140.199 82.0494 139.905 81.0266 139.318C80.0086 138.731 79.2037 137.881 78.6119 136.768C78.0247 135.656 77.7312 134.309 77.7312 132.727C77.7312 131.141 78.0295 129.792 78.6261 128.679C79.2227 127.566 80.0323 126.719 81.055 126.136C82.0778 125.549 83.2283 125.256 84.5067 125.256C85.3496 125.256 86.1308 125.374 86.8505 125.611C87.5749 125.848 88.2165 126.193 88.7752 126.648C89.3339 127.098 89.7885 127.649 90.1388 128.303C90.494 128.956 90.7212 129.704 90.8207 130.547ZM95.2596 140H91.9641L96.9854 125.455H100.949L105.963 140H102.667L99.0238 128.778H98.9102L95.2596 140ZM95.0536 134.283H102.838V136.683H95.0536V134.283ZM106.925 143.509V137.55H107.912C108.248 137.308 108.556 136.967 108.836 136.527C109.115 136.082 109.354 135.469 109.553 134.688C109.752 133.902 109.894 132.874 109.979 131.605L110.391 125.455H120.015V137.55H121.605V143.494H118.651V140H109.88V143.509H106.925ZM111.463 137.55H117.06V127.99H113.161L112.934 131.605C112.872 132.566 112.77 133.419 112.628 134.162C112.491 134.905 112.323 135.556 112.124 136.115C111.93 136.669 111.71 137.147 111.463 137.55ZM125.499 130.831H128.965C130.121 130.831 131.115 131.018 131.948 131.392C132.786 131.761 133.433 132.285 133.887 132.962C134.342 133.639 134.567 134.437 134.562 135.355C134.567 136.269 134.342 137.076 133.887 137.777C133.433 138.473 132.786 139.018 131.948 139.411C131.115 139.804 130.121 140 128.965 140H123.532V125.455H126.6V137.528H128.965C129.519 137.528 129.986 137.429 130.364 137.23C130.743 137.027 131.03 136.759 131.224 136.428C131.423 136.091 131.52 135.724 131.515 135.327C131.52 134.749 131.302 134.261 130.862 133.864C130.426 133.461 129.794 133.26 128.965 133.26H125.499V130.831ZM138.816 125.455V140H135.748V125.455H138.816Z" fill="black"/>
</svg>
