<svg width="62" height="62" viewBox="0 0 62 62" fill="none" xmlns="http://www.w3.org/2000/svg">
<path fill-rule="evenodd" clip-rule="evenodd" d="M19.53 39.7573C18.0684 38.866 16.3426 38.5099 14.6475 38.7498H10.3334V54.2498H13.7692V48.334H15.2417C16.7671 48.4907 18.3 48.1167 19.5817 47.2748C20.6697 46.3417 21.2695 44.9611 21.2092 43.529C21.2898 42.0747 20.6647 40.6707 19.53 39.7573ZM16.7659 45.4148C16.1169 45.7005 15.4034 45.8075 14.6992 45.7248H13.6917V41.3332H14.6992C15.4308 41.2554 16.1689 41.3994 16.8175 41.7465C17.4217 42.1673 17.764 42.8715 17.7217 43.6065C17.8 44.3475 17.4222 45.0622 16.7659 45.4148ZM28.5975 38.7498H24.3092V54.2498H28.4167C30.51 54.4547 32.618 54.051 34.4875 53.0873C36.5447 51.5542 37.6437 49.052 37.3809 46.4998C37.5349 44.3134 36.7558 42.164 35.2367 40.584C33.3602 39.105 30.9672 38.4438 28.5975 38.7498ZM32.0075 50.7365C30.9313 51.3415 29.6989 51.6113 28.4684 51.5115H27.7967V41.4882H28.4167C30.5867 41.4882 31.4392 41.6948 32.2917 42.4698C33.3263 43.547 33.8606 45.0094 33.7642 46.4998C33.8971 48.1129 33.2429 49.6908 32.0075 50.7365ZM41.1525 54.2498H44.64V47.7657H51.6667V45.0273H44.64V41.4882H51.6667V38.7498H41.1525V54.2498ZM38.75 5.1665H10.3334V33.5832H15.5V28.4165V25.704V10.3332H36.6059L46.5 20.2273V25.704V28.4165V33.5832H51.6667V18.0832L38.75 5.1665Z" fill="#C65D3B"/>
</svg>
