<svg width="34" height="34" viewBox="0 0 34 34" fill="none" xmlns="http://www.w3.org/2000/svg">
<g clip-path="url(#clip0_608_355)">
<path d="M17 0C7.61109 0 0 7.61109 0 17C0 26.3889 7.61109 34 17 34C26.3889 34 34 26.3889 34 17C34 7.61109 26.3889 0 17 0Z" fill="#C65D3B"/>
<path d="M25.2719 9.7791L22.2355 25.088C22.2355 25.088 21.8109 26.1497 20.6431 25.6401L13.6362 20.2681L11.0883 19.0367L6.79927 17.5927C6.79927 17.5927 6.14105 17.3592 6.0773 16.8496C6.01369 16.34 6.82052 16.0641 6.82052 16.0641L23.8705 9.37561C23.8705 9.37561 25.2719 8.7599 25.2719 9.7791Z" fill="white"/>
<path d="M13.0977 24.9162C13.0977 24.9162 12.8932 24.897 12.6383 24.0901C12.3836 23.2832 11.0884 19.0367 11.0884 19.0367L21.3863 12.497C21.3863 12.497 21.9809 12.136 21.9596 12.497C21.9596 12.497 22.0657 12.5606 21.7472 12.8578C21.4288 13.1552 13.6575 20.1407 13.6575 20.1407" fill="#D2E5F1"/>
<path d="M16.3229 22.3279L13.5513 24.8548C13.5513 24.8548 13.3347 25.0192 13.0977 24.9161L13.6284 20.2224" fill="#B5CFE4"/>
</g>
<defs>
<clipPath id="clip0_608_355">
<rect width="34" height="34" fill="white"/>
</clipPath>
</defs>
</svg>
